<svg xmlns="http://www.w3.org/2000/svg" xmlns:xlink="http://www.w3.org/1999/xlink" width="2000" zoomAndPan="magnify" viewBox="200 760 1600 720" height="2000" preserveAspectRatio="xMidYMid meet" version="1.0">
  <defs>
    <g />
    <clipPath id="926ff11356">
      <path d="M 695 677 L 805 677 L 805 808.835938 L 695 808.835938 Z M 695 677 " clip-rule="nonzero" />
    </clipPath>
    <clipPath id="be9122614c">
      <path d="M 651.082031 610.085938 L 849 610.085938 L 849 718 L 651.082031 718 Z M 651.082031 610.085938 " clip-rule="nonzero" />
    </clipPath>
    <clipPath id="6b3e162d78">
      <rect x="0" width="1075" y="0" height="201" />
    </clipPath>
    <clipPath id="f3da503ee1">
      <rect x="0" width="833" y="0" height="66" />
    </clipPath>
  </defs>
  <g clip-path="url(#926ff11356)">
    <path fill="#00bf63" d="M 780.140625 677.828125 L 804.332031 677.828125 L 804.332031 808.898438 L 780.140625 808.898438 L 780.140625 758.554688 L 750.011719 788.6875 L 719.882812 758.554688 L 719.882812 808.898438 L 695.691406 808.898438 L 695.691406 677.828125 L 719.882812 677.828125 L 719.882812 724.347656 L 750.011719 754.476562 L 780.140625 724.347656 Z M 780.140625 677.828125 " fill-opacity="1" fill-rule="nonzero" />
  </g>
  <g clip-path="url(#be9122614c)">
    <path fill="#ff0000" d="M 848.9375 666.425781 C 848.9375 681.472656 843.078125 695.621094 832.433594 706.261719 L 821.128906 717.566406 L 821.128906 681.242188 C 827.40625 669.136719 825.472656 653.839844 815.332031 643.695312 C 809.261719 637.625 801.1875 634.28125 792.601562 634.28125 C 784.019531 634.28125 775.941406 637.625 769.871094 643.695312 L 750.011719 663.558594 L 730.148438 643.695312 C 724.078125 637.625 716.003906 634.28125 707.417969 634.28125 C 698.835938 634.28125 690.757812 637.625 684.691406 643.695312 C 678.621094 649.765625 675.277344 657.839844 675.277344 666.425781 C 675.277344 671.679688 676.53125 676.738281 678.894531 681.265625 L 678.894531 717.566406 L 670.34375 709.015625 L 667.585938 706.261719 C 656.9375 695.617188 651.082031 681.472656 651.082031 666.425781 C 651.082031 651.378906 656.9375 637.226562 667.582031 626.589844 C 678.222656 615.945312 692.371094 610.085938 707.417969 610.085938 C 722.46875 610.085938 736.617188 615.945312 747.253906 626.589844 L 750.011719 629.34375 L 752.765625 626.589844 C 763.40625 615.945312 777.554688 610.085938 792.601562 610.085938 C 807.648438 610.085938 821.800781 615.945312 832.4375 626.589844 C 843.078125 637.226562 848.9375 651.378906 848.9375 666.425781 Z M 848.9375 666.425781 " fill-opacity="1" fill-rule="nonzero" />
  </g>
  <g transform="matrix(1, 0, 0, 1, 213, 810)">
    <g clip-path="url(#6b3e162d78)">
      <g fill="#00bf63" fill-opacity="1">
        <g transform="translate(1.230349, 160.53876)">
          <g>
            <path d="M 76.484375 -27.109375 L 114.640625 -114.296875 L 132.25 -114.296875 L 138.640625 0 L 121.03125 0 L 116.375 -98.234375 L 115.6875 -98.234375 L 72.171875 0 L 69.75 0 L 27.109375 -94.265625 L 26.421875 -94.265625 L 21.75 0 L 14.15625 0 L 20.546875 -114.296875 L 36.609375 -114.296875 Z M 76.484375 -27.109375 " />
          </g>
        </g>
      </g>
      <g fill="#00bf63" fill-opacity="1">
        <g transform="translate(154.692082, 160.53876)">
          <g>
            <path d="M 31.421875 -114.296875 L 31.421875 0 L 15.546875 0 L 15.546875 -114.296875 Z M 31.421875 -114.296875 " />
          </g>
        </g>
      </g>
      <g fill="#00bf63" fill-opacity="1">
        <g transform="translate(201.64553, 160.53876)">
          <g>
            <path d="M 15.546875 0 L 15.546875 -114.296875 L 32.453125 -114.296875 L 32.453125 -9.328125 C 39.472656 -7.253906 45.113281 -6.21875 49.375 -6.21875 L 80.625 -11.5625 L 78.5625 0 Z M 15.546875 0 " />
          </g>
        </g>
      </g>
      <g fill="#00bf63" fill-opacity="1">
        <g transform="translate(285.712883, 160.53876)">
          <g>
            <path d="M 1.734375 0 L 53 -117.0625 L 55.59375 -117.0625 L 106.875 0 L 88.0625 0 L 75.109375 -31.078125 L 23.828125 -31.078125 L 11.046875 0 Z M 26.421875 -37.640625 L 72.34375 -37.640625 L 49.546875 -93.578125 Z M 26.421875 -37.640625 " />
          </g>
        </g>
      </g>
      <g fill="#00bf63" fill-opacity="1">
        <g transform="translate(394.29266, 160.53876)">
          <g>
            <path d="M 102.390625 1.90625 L 99.453125 1.90625 L 23.828125 -92.71875 L 23.140625 -92.71875 L 23.140625 0 L 15.546875 0 L 15.546875 -114.296875 L 28.3125 -114.296875 L 94.09375 -31.25 L 94.78125 -31.25 L 94.78125 -114.296875 L 102.390625 -114.296875 Z M 102.390625 1.90625 " />
          </g>
        </g>
      </g>
      <g fill="#00bf63" fill-opacity="1">
        <g transform="translate(512.194104, 160.53876)">
          <g>
            <path d="M 67.515625 -116.375 C 82.472656 -116.375 94.84375 -111.453125 104.625 -101.609375 C 114.414062 -91.765625 119.3125 -78.097656 119.3125 -60.609375 C 119.3125 -49.328125 117.351562 -39.453125 113.4375 -30.984375 C 109.519531 -22.523438 104.394531 -15.992188 98.0625 -11.390625 C 85.75 -2.410156 72.164062 2.078125 57.3125 2.078125 C 42.46875 2.078125 30.179688 -2.898438 20.453125 -12.859375 C 10.734375 -22.816406 5.875 -36.546875 5.875 -54.046875 C 5.875 -63.140625 7.164062 -71.335938 9.75 -78.640625 C 12.34375 -85.953125 15.738281 -91.910156 19.9375 -96.515625 C 24.144531 -101.117188 29.007812 -104.972656 34.53125 -108.078125 C 44.65625 -113.609375 55.648438 -116.375 67.515625 -116.375 Z M 32.8125 -19.6875 C 35.800781 -14.625 39.828125 -10.679688 44.890625 -7.859375 C 49.953125 -5.035156 55.789062 -3.625 62.40625 -3.625 C 69.03125 -3.625 74.929688 -5.289062 80.109375 -8.625 C 85.285156 -11.96875 89.316406 -16.34375 92.203125 -21.75 C 98.066406 -32.570312 101 -44.195312 101 -56.625 C 101 -71.9375 97.953125 -84.253906 91.859375 -93.578125 C 85.066406 -104.054688 73.84375 -109.296875 58.1875 -109.296875 C 47.019531 -105.378906 38.554688 -98.644531 32.796875 -89.09375 C 27.046875 -79.539062 24.171875 -68.71875 24.171875 -56.625 C 24.171875 -41.894531 27.050781 -29.582031 32.8125 -19.6875 Z M 32.8125 -19.6875 " />
          </g>
        </g>
      </g>
      <g fill="#00bf63" fill-opacity="1">
        <g transform="translate(637.345678, 160.53876)">
          <g />
        </g>
      </g>
      <g fill="#00bf63" fill-opacity="1">
        <g transform="translate(680.501389, 160.53876)">
          <g>
            <path d="M 32.28125 -56.625 L 32.28125 0 L 15.546875 0 L 15.546875 -114.296875 L 32.28125 -114.296875 L 32.28125 -63.1875 L 84.609375 -63.1875 L 84.609375 -114.296875 L 101.34375 -114.296875 L 101.34375 0 L 84.609375 0 L 84.609375 -56.625 Z M 32.28125 -56.625 " />
          </g>
        </g>
      </g>
      <g fill="#00bf63" fill-opacity="1">
        <g transform="translate(797.367088, 160.53876)">
          <g>
            <path d="M 15.546875 0 L 15.546875 -114.296875 L 84.78125 -114.296875 L 83.046875 -102.734375 L 50.9375 -108.078125 C 45.289062 -108.078125 39.070312 -107.097656 32.28125 -105.140625 L 32.28125 -63.1875 L 70.609375 -63.1875 L 70.609375 -56.625 L 32.28125 -56.625 L 32.28125 -6.21875 L 85.8125 -11.5625 L 84.078125 0 Z M 15.546875 0 " />
          </g>
        </g>
      </g>
      <g fill="#00bf63" fill-opacity="1">
        <g transform="translate(894.381126, 160.53876)">
          <g>
            <path d="M 15.546875 0 L 15.546875 -114.296875 L 32.453125 -114.296875 L 32.453125 -9.328125 C 39.472656 -7.253906 45.113281 -6.21875 49.375 -6.21875 L 80.625 -11.5625 L 78.5625 0 Z M 15.546875 0 " />
          </g>
        </g>
      </g>
      <g fill="#00bf63" fill-opacity="1">
        <g transform="translate(978.448526, 160.53876)">
          <g>
            <path d="M 92.375 -84.609375 C 92.375 -73.554688 88.316406 -65.179688 80.203125 -59.484375 C 72.085938 -53.785156 61.066406 -50.9375 47.140625 -50.9375 L 32.28125 -50.9375 L 32.28125 0 L 15.546875 0 L 15.546875 -114.296875 L 52.65625 -114.296875 C 64.28125 -114.296875 73.804688 -111.648438 81.234375 -106.359375 C 88.660156 -101.066406 92.375 -93.816406 92.375 -84.609375 Z M 32.28125 -55.9375 L 47.65625 -55.9375 C 53.0625 -55.9375 57.691406 -56.972656 61.546875 -59.046875 C 65.410156 -61.117188 68.203125 -63.765625 69.921875 -66.984375 C 73.035156 -72.742188 74.59375 -78.328125 74.59375 -83.734375 C 74.59375 -86.378906 73.898438 -89.546875 72.515625 -93.234375 C 69.753906 -100.828125 64.054688 -105.773438 55.421875 -108.078125 C 47.128906 -108.078125 39.414062 -107.097656 32.28125 -105.140625 Z M 32.28125 -55.9375 " />
          </g>
        </g>
      </g>
    </g>
  </g>
  <g transform="matrix(1, 0, 0, 1, 337, 997)">
    <g clip-path="url(#f3da503ee1)">
      <g fill="#000000" fill-opacity="1">
        <g transform="translate(1.953938, 52.047623)">
          <g>
            <path d="M 21.96875 0.671875 C 16.21875 0.671875 11.378906 -0.882812 7.453125 -4 C 3.523438 -7.113281 1.5625 -11.582031 1.5625 -17.40625 C 1.5625 -20.8125 2.207031 -23.847656 3.5 -26.515625 C 4.800781 -29.191406 6.507812 -31.289062 8.625 -32.8125 C 12.882812 -35.925781 17.664062 -37.484375 22.96875 -37.484375 C 26.039062 -37.484375 29.25 -36.925781 32.59375 -35.8125 L 32.03125 -32.03125 C 30.289062 -32.769531 28.9375 -33.328125 27.96875 -33.703125 C 25.1875 -34.703125 22.390625 -35.203125 19.578125 -35.203125 C 15.679688 -34.304688 12.6875 -32.375 10.59375 -29.40625 C 8.5 -26.445312 7.453125 -22.742188 7.453125 -18.296875 C 7.453125 -12.847656 8.878906 -8.648438 11.734375 -5.703125 C 14.585938 -2.753906 18.347656 -1.28125 23.015625 -1.28125 C 27.691406 -1.28125 31.179688 -2.28125 33.484375 -4.28125 L 33.484375 -1.21875 C 30.285156 0.0390625 26.445312 0.671875 21.96875 0.671875 Z M 21.96875 0.671875 " />
          </g>
        </g>
      </g>
      <g fill="#000000" fill-opacity="1">
        <g transform="translate(43.041861, 52.047623)">
          <g>
            <path d="M 21.75 -37.484375 C 26.5625 -37.484375 30.539062 -35.894531 33.6875 -32.71875 C 36.84375 -29.550781 38.421875 -25.148438 38.421875 -19.515625 C 38.421875 -15.878906 37.789062 -12.695312 36.53125 -9.96875 C 35.269531 -7.25 33.625 -5.148438 31.59375 -3.671875 C 27.625 -0.773438 23.242188 0.671875 18.453125 0.671875 C 13.671875 0.671875 9.710938 -0.929688 6.578125 -4.140625 C 3.453125 -7.347656 1.890625 -11.769531 1.890625 -17.40625 C 1.890625 -20.332031 2.304688 -22.972656 3.140625 -25.328125 C 3.972656 -27.679688 5.066406 -29.597656 6.421875 -31.078125 C 7.773438 -32.566406 9.34375 -33.8125 11.125 -34.8125 C 14.382812 -36.59375 17.925781 -37.484375 21.75 -37.484375 Z M 10.5625 -6.34375 C 11.53125 -4.707031 12.828125 -3.4375 14.453125 -2.53125 C 16.085938 -1.625 17.96875 -1.171875 20.09375 -1.171875 C 22.226562 -1.171875 24.128906 -1.707031 25.796875 -2.78125 C 27.472656 -3.851562 28.773438 -5.257812 29.703125 -7 C 31.585938 -10.488281 32.53125 -14.234375 32.53125 -18.234375 C 32.53125 -23.171875 31.546875 -27.140625 29.578125 -30.140625 C 27.390625 -33.515625 23.773438 -35.203125 18.734375 -35.203125 C 15.140625 -33.941406 12.414062 -31.769531 10.5625 -28.6875 C 8.707031 -25.613281 7.78125 -22.128906 7.78125 -18.234375 C 7.78125 -13.492188 8.707031 -9.53125 10.5625 -6.34375 Z M 10.5625 -6.34375 " />
          </g>
        </g>
      </g>
      <g fill="#000000" fill-opacity="1">
        <g transform="translate(89.300062, 52.047623)">
          <g>
            <path d="M 24.640625 -8.734375 L 36.921875 -36.8125 L 42.59375 -36.8125 L 44.65625 0 L 38.984375 0 L 37.484375 -31.640625 L 37.265625 -31.640625 L 23.25 0 L 22.46875 0 L 8.734375 -30.359375 L 8.515625 -30.359375 L 7 0 L 4.5625 0 L 6.625 -36.8125 L 11.796875 -36.8125 Z M 24.640625 -8.734375 " />
          </g>
        </g>
      </g>
      <g fill="#000000" fill-opacity="1">
        <g transform="translate(144.675771, 52.047623)">
          <g>
            <path d="M 24.640625 -8.734375 L 36.921875 -36.8125 L 42.59375 -36.8125 L 44.65625 0 L 38.984375 0 L 37.484375 -31.640625 L 37.265625 -31.640625 L 23.25 0 L 22.46875 0 L 8.734375 -30.359375 L 8.515625 -30.359375 L 7 0 L 4.5625 0 L 6.625 -36.8125 L 11.796875 -36.8125 Z M 24.640625 -8.734375 " />
          </g>
        </g>
      </g>
      <g fill="#000000" fill-opacity="1">
        <g transform="translate(200.051481, 52.047623)">
          <g>
            <path d="M 32.359375 -36.8125 L 32.359375 -14.234375 C 32.359375 -10.785156 31.988281 -8.191406 31.25 -6.453125 C 30.914062 -5.671875 30.382812 -4.785156 29.65625 -3.796875 C 28.9375 -2.816406 28.097656 -2.035156 27.140625 -1.453125 C 24.691406 -0.0351562 21.632812 0.671875 17.96875 0.671875 C 8.769531 0.671875 4.171875 -4.054688 4.171875 -13.515625 L 4.171875 -36.8125 L 9.84375 -36.8125 L 9.84375 -13.0625 C 9.84375 -11.988281 9.859375 -11.117188 9.890625 -10.453125 C 9.929688 -9.785156 10.128906 -8.835938 10.484375 -7.609375 C 10.835938 -6.390625 11.316406 -5.410156 11.921875 -4.671875 C 12.535156 -3.929688 13.5 -3.265625 14.8125 -2.671875 C 16.132812 -2.078125 17.703125 -1.78125 19.515625 -1.78125 C 26.453125 -1.78125 29.921875 -5.488281 29.921875 -12.90625 L 29.921875 -36.8125 Z M 32.359375 -36.8125 " />
          </g>
        </g>
      </g>
      <g fill="#000000" fill-opacity="1">
        <g transform="translate(242.52928, 52.047623)">
          <g>
            <path d="M 32.96875 0.609375 L 32.03125 0.609375 L 7.671875 -29.859375 L 7.453125 -29.859375 L 7.453125 0 L 5 0 L 5 -36.8125 L 9.125 -36.8125 L 30.3125 -10.0625 L 30.53125 -10.0625 L 30.53125 -36.8125 L 32.96875 -36.8125 Z M 32.96875 0.609375 " />
          </g>
        </g>
      </g>
      <g fill="#000000" fill-opacity="1">
        <g transform="translate(286.452525, 52.047623)">
          <g>
            <path d="M 10.125 -36.8125 L 10.125 0 L 5 0 L 5 -36.8125 Z M 10.125 -36.8125 " />
          </g>
        </g>
      </g>
      <g fill="#000000" fill-opacity="1">
        <g transform="translate(307.526448, 52.047623)">
          <g>
            <path d="M 17.578125 0 L 12.171875 0 L 12.171875 -34.140625 C 10.910156 -34.441406 9.648438 -34.59375 8.390625 -34.59375 L 0.890625 -32.859375 L 0.5625 -36.8125 L 29.1875 -36.8125 L 28.921875 -32.859375 L 21.359375 -34.59375 C 20.097656 -34.59375 18.835938 -34.441406 17.578125 -34.140625 Z M 17.578125 0 " />
          </g>
        </g>
      </g>
      <g fill="#000000" fill-opacity="1">
        <g transform="translate(343.221695, 52.047623)">
          <g>
            <path d="M 19.078125 0 L 13.6875 0 L 13.6875 -13.6875 L 1.109375 -36.8125 L 7.171875 -36.8125 L 17.46875 -15.6875 L 27.078125 -36.8125 L 29.859375 -36.8125 L 19.078125 -13.953125 Z M 19.078125 0 " />
          </g>
        </g>
      </g>
      <g fill="#000000" fill-opacity="1">
        <g transform="translate(380.140029, 52.047623)">
          <g />
        </g>
      </g>
      <g fill="#000000" fill-opacity="1">
        <g transform="translate(399.990865, 52.047623)">
          <g>
            <path d="M 5 0 L 5 -36.8125 L 15.515625 -36.8125 C 19.890625 -36.8125 23.835938 -35.882812 27.359375 -34.03125 C 29.253906 -33.070312 30.90625 -31.867188 32.3125 -30.421875 C 33.71875 -28.972656 34.847656 -27.125 35.703125 -24.875 C 36.554688 -22.632812 36.984375 -20.144531 36.984375 -17.40625 C 36.984375 -13.476562 36 -10.160156 34.03125 -7.453125 C 30.4375 -2.484375 24.617188 0 16.578125 0 Z M 15.453125 -1.890625 C 20.160156 -1.890625 23.941406 -3.28125 26.796875 -6.0625 C 29.648438 -8.84375 31.078125 -12.921875 31.078125 -18.296875 C 31.078125 -22.453125 29.945312 -26 27.6875 -28.9375 C 25.425781 -31.882812 22.5 -33.84375 18.90625 -34.8125 C 15.675781 -34.8125 12.859375 -34.421875 10.453125 -33.640625 L 10.453125 -2.390625 C 11.640625 -2.054688 13.304688 -1.890625 15.453125 -1.890625 Z M 15.453125 -1.890625 " />
          </g>
        </g>
      </g>
      <g fill="#000000" fill-opacity="1">
        <g transform="translate(445.303987, 52.047623)">
          <g>
            <path d="M 10.125 -36.8125 L 10.125 0 L 5 0 L 5 -36.8125 Z M 10.125 -36.8125 " />
          </g>
        </g>
      </g>
      <g fill="#000000" fill-opacity="1">
        <g transform="translate(466.37791, 52.047623)">
          <g />
        </g>
      </g>
      <g fill="#000000" fill-opacity="1">
        <g transform="translate(486.228746, 52.047623)">
          <g>
            <path d="M 21.75 -37.484375 C 26.5625 -37.484375 30.539062 -35.894531 33.6875 -32.71875 C 36.84375 -29.550781 38.421875 -25.148438 38.421875 -19.515625 C 38.421875 -16.441406 37.96875 -13.691406 37.0625 -11.265625 C 36.15625 -8.835938 34.921875 -6.863281 33.359375 -5.34375 C 30.398438 -2.375 26.863281 -0.519531 22.75 0.21875 L 31.859375 6.734375 L 27.25 10.015625 L 19.015625 0.671875 L 18.515625 0.671875 C 13.691406 0.671875 9.710938 -0.929688 6.578125 -4.140625 C 3.453125 -7.347656 1.890625 -11.769531 1.890625 -17.40625 C 1.890625 -20.332031 2.304688 -22.972656 3.140625 -25.328125 C 3.972656 -27.679688 5.066406 -29.597656 6.421875 -31.078125 C 7.773438 -32.566406 9.34375 -33.8125 11.125 -34.8125 C 14.382812 -36.59375 17.925781 -37.484375 21.75 -37.484375 Z M 10.5625 -6.34375 C 11.53125 -4.707031 12.828125 -3.4375 14.453125 -2.53125 C 16.085938 -1.625 17.96875 -1.171875 20.09375 -1.171875 C 22.226562 -1.171875 24.128906 -1.707031 25.796875 -2.78125 C 27.472656 -3.851562 28.773438 -5.257812 29.703125 -7 C 31.585938 -10.488281 32.53125 -14.234375 32.53125 -18.234375 C 32.53125 -23.171875 31.546875 -27.140625 29.578125 -30.140625 C 27.390625 -33.515625 23.773438 -35.203125 18.734375 -35.203125 C 15.140625 -33.941406 12.414062 -31.769531 10.5625 -28.6875 C 8.707031 -25.613281 7.78125 -22.128906 7.78125 -18.234375 C 7.78125 -13.492188 8.707031 -9.53125 10.5625 -6.34375 Z M 10.5625 -6.34375 " />
          </g>
        </g>
      </g>
      <g fill="#000000" fill-opacity="1">
        <g transform="translate(532.486947, 52.047623)">
          <g>
            <path d="M 32.359375 -36.8125 L 32.359375 -14.234375 C 32.359375 -10.785156 31.988281 -8.191406 31.25 -6.453125 C 30.914062 -5.671875 30.382812 -4.785156 29.65625 -3.796875 C 28.9375 -2.816406 28.097656 -2.035156 27.140625 -1.453125 C 24.691406 -0.0351562 21.632812 0.671875 17.96875 0.671875 C 8.769531 0.671875 4.171875 -4.054688 4.171875 -13.515625 L 4.171875 -36.8125 L 9.84375 -36.8125 L 9.84375 -13.0625 C 9.84375 -11.988281 9.859375 -11.117188 9.890625 -10.453125 C 9.929688 -9.785156 10.128906 -8.835938 10.484375 -7.609375 C 10.835938 -6.390625 11.316406 -5.410156 11.921875 -4.671875 C 12.535156 -3.929688 13.5 -3.265625 14.8125 -2.671875 C 16.132812 -2.078125 17.703125 -1.78125 19.515625 -1.78125 C 26.453125 -1.78125 29.921875 -5.488281 29.921875 -12.90625 L 29.921875 -36.8125 Z M 32.359375 -36.8125 " />
          </g>
        </g>
      </g>
      <g fill="#000000" fill-opacity="1">
        <g transform="translate(574.964746, 52.047623)">
          <g>
            <path d="M 0.5625 0 L 17.078125 -37.703125 L 17.90625 -37.703125 L 34.421875 0 L 28.359375 0 L 24.1875 -10.015625 L 7.671875 -10.015625 L 3.5625 0 Z M 8.515625 -12.125 L 23.296875 -12.125 L 15.953125 -30.140625 Z M 8.515625 -12.125 " />
          </g>
        </g>
      </g>
      <g fill="#000000" fill-opacity="1">
        <g transform="translate(615.885881, 52.047623)">
          <g>
            <path d="M 10.453125 -17.578125 L 10.453125 0 L 5 0 L 5 -36.8125 L 17.015625 -36.8125 C 20.765625 -36.8125 23.832031 -35.976562 26.21875 -34.3125 C 28.613281 -32.644531 29.8125 -30.445312 29.8125 -27.71875 C 29.8125 -25 28.851562 -22.847656 26.9375 -21.265625 C 25.03125 -19.691406 22.445312 -18.609375 19.1875 -18.015625 L 34.09375 0 L 27.640625 0.78125 L 14.734375 -17.578125 Z M 10.453125 -19.234375 L 14.015625 -19.234375 C 20.679688 -19.234375 24.015625 -21.867188 24.015625 -27.140625 C 24.015625 -28.023438 23.796875 -29.023438 23.359375 -30.140625 C 22.503906 -32.472656 20.6875 -34.007812 17.90625 -34.75 C 15.382812 -34.75 12.898438 -34.4375 10.453125 -33.8125 Z M 10.453125 -19.234375 " />
          </g>
        </g>
      </g>
      <g fill="#000000" fill-opacity="1">
        <g transform="translate(657.30738, 52.047623)">
          <g>
            <path d="M 17.578125 0 L 12.171875 0 L 12.171875 -34.140625 C 10.910156 -34.441406 9.648438 -34.59375 8.390625 -34.59375 L 0.890625 -32.859375 L 0.5625 -36.8125 L 29.1875 -36.8125 L 28.921875 -32.859375 L 21.359375 -34.59375 C 20.097656 -34.59375 18.835938 -34.441406 17.578125 -34.140625 Z M 17.578125 0 " />
          </g>
        </g>
      </g>
      <g fill="#000000" fill-opacity="1">
        <g transform="translate(693.002627, 52.047623)">
          <g>
            <path d="M 10.125 -36.8125 L 10.125 0 L 5 0 L 5 -36.8125 Z M 10.125 -36.8125 " />
          </g>
        </g>
      </g>
      <g fill="#000000" fill-opacity="1">
        <g transform="translate(714.07655, 52.047623)">
          <g>
            <path d="M 5 0 L 5 -36.8125 L 27.296875 -36.8125 L 26.75 -33.09375 L 16.40625 -34.8125 C 14.59375 -34.8125 12.59375 -34.492188 10.40625 -33.859375 L 10.40625 -20.359375 L 22.75 -20.359375 L 22.75 -18.234375 L 10.40625 -18.234375 L 10.40625 -2 L 27.640625 -3.71875 L 27.078125 0 Z M 5 0 " />
          </g>
        </g>
      </g>
      <g fill="#000000" fill-opacity="1">
        <g transform="translate(751.272893, 52.047623)">
          <g>
            <path d="M 10.453125 -17.578125 L 10.453125 0 L 5 0 L 5 -36.8125 L 17.015625 -36.8125 C 20.765625 -36.8125 23.832031 -35.976562 26.21875 -34.3125 C 28.613281 -32.644531 29.8125 -30.445312 29.8125 -27.71875 C 29.8125 -25 28.851562 -22.847656 26.9375 -21.265625 C 25.03125 -19.691406 22.445312 -18.609375 19.1875 -18.015625 L 34.09375 0 L 27.640625 0.78125 L 14.734375 -17.578125 Z M 10.453125 -19.234375 L 14.015625 -19.234375 C 20.679688 -19.234375 24.015625 -21.867188 24.015625 -27.140625 C 24.015625 -28.023438 23.796875 -29.023438 23.359375 -30.140625 C 22.503906 -32.472656 20.6875 -34.007812 17.90625 -34.75 C 15.382812 -34.75 12.898438 -34.4375 10.453125 -33.8125 Z M 10.453125 -19.234375 " />
          </g>
        </g>
      </g>
      <g fill="#000000" fill-opacity="1">
        <g transform="translate(792.694351, 52.047623)">
          <g>
            <path d="M 5 0 L 5 -36.8125 L 27.296875 -36.8125 L 26.75 -33.09375 L 16.40625 -34.8125 C 14.59375 -34.8125 12.59375 -34.492188 10.40625 -33.859375 L 10.40625 -20.359375 L 22.75 -20.359375 L 22.75 -18.234375 L 10.40625 -18.234375 L 10.40625 -2 L 27.640625 -3.71875 L 27.078125 0 Z M 5 0 " />
          </g>
        </g>
      </g>
    </g>
  </g>
</svg>