<svg xmlns="http://www.w3.org/2000/svg" xmlns:xlink="http://www.w3.org/1999/xlink" width="2000" zoomAndPan="magnify" viewBox="0 0 1500 1499.999933" height="2000" preserveAspectRatio="xMidYMid meet" version="1.0"><defs><clipPath id="d63d4b19ce"><path d="M 90.699219 31.394531 L 1409.199219 31.394531 L 1409.199219 1349.894531 L 90.699219 1349.894531 Z M 90.699219 31.394531 " clip-rule="nonzero"/></clipPath><clipPath id="b3ad76683c"><path d="M 540.867188 482.085938 L 736 482.085938 L 736 899.085938 L 540.867188 899.085938 Z M 540.867188 482.085938 " clip-rule="nonzero"/></clipPath><clipPath id="d0d48c29c8"><path d="M 767 482.085938 L 959.367188 482.085938 L 959.367188 899.085938 L 767 899.085938 Z M 767 482.085938 " clip-rule="nonzero"/></clipPath></defs><g clip-path="url(#d63d4b19ce)"><path fill="#1b7b58" d="M 749.996094 31.394531 C 384.84375 31.394531 90.699219 325.542969 90.699219 690.691406 C 90.699219 1055.839844 384.84375 1349.988281 749.996094 1349.988281 C 1115.144531 1349.988281 1409.292969 1055.839844 1409.292969 690.691406 C 1409.292969 325.542969 1115.144531 31.394531 749.996094 31.394531 Z M 749.996094 31.394531 " fill-opacity="1" fill-rule="nonzero"/></g><path fill="#ffffff" d="M 1105 688.15625 L 749.996094 376.257812 L 397.523438 688.15625 L 397.523438 1134.449219 C 397.523438 1147.128906 407.667969 1154.734375 417.808594 1154.734375 L 638.421875 1154.734375 L 638.421875 959.484375 C 638.421875 946.804688 648.5625 939.195312 658.707031 939.195312 L 841.28125 939.195312 C 853.960938 939.195312 861.566406 949.339844 861.566406 959.484375 L 861.566406 1154.734375 L 1082.179688 1154.734375 C 1094.859375 1154.734375 1102.464844 1144.59375 1102.464844 1134.449219 Z M 1105 688.15625 " fill-opacity="1" fill-rule="nonzero"/><path fill="#ffffff" d="M 1105 515.726562 L 1105 335.6875 L 975.675781 335.6875 L 978.210938 404.152344 L 752.53125 203.828125 L 749.996094 206.363281 L 747.457031 203.828125 L 247.914062 650.121094 L 298.628906 708.441406 L 749.996094 310.328125 L 1201.359375 708.441406 L 1254.609375 650.121094 Z M 1105 515.726562 " fill-opacity="1" fill-rule="nonzero"/><g clip-path="url(#b3ad76683c)"><path fill="#1b7b58" d="M 685.785156 491.625 C 681.320312 493.0625 676.921875 494.648438 672.59375 496.375 L 635.6875 612.011719 L 606.359375 538.726562 C 592.515625 551.8125 580.464844 566.773438 570.605469 583.203125 C 551.746094 614.613281 540.902344 651.378906 540.902344 690.679688 C 540.902344 732.5625 553.210938 771.5625 574.421875 804.269531 L 617.28125 774.46875 C 615.347656 771.417969 613.523438 768.304688 611.804688 765.117188 L 611.804688 765.113281 C 605.875 754.132812 601.222656 742.371094 598.03125 730.015625 L 598.03125 730.011719 C 596.808594 725.269531 595.800781 720.445312 595.023438 715.539062 C 593.730469 707.441406 593.058594 699.140625 593.058594 690.679688 C 593.058594 682.21875 593.730469 673.914062 595.023438 665.816406 C 595.785156 660.996094 596.773438 656.25 597.96875 651.585938 L 641.0625 758.726562 L 685.785156 618.59375 L 685.785156 889.730469 C 701.617188 894.835938 718.273438 898.101562 735.507812 899.285156 L 735.507812 482.074219 C 733.390625 482.21875 731.28125 482.398438 729.183594 482.609375 C 714.195312 484.085938 699.671875 487.152344 685.785156 491.625 Z M 685.785156 491.625 " fill-opacity="1" fill-rule="nonzero"/></g><g clip-path="url(#d0d48c29c8)"><path fill="#1b7b58" d="M 890.046875 535.410156 L 855.964844 574.917969 C 856.007812 574.953125 856.050781 574.988281 856.089844 575.027344 C 856.449219 575.359375 856.804688 575.6875 857.160156 576.019531 C 857.554688 576.386719 857.945312 576.761719 858.335938 577.136719 C 859.914062 578.640625 861.460938 580.175781 862.972656 581.746094 C 863.339844 582.125 863.703125 582.503906 864.0625 582.882812 C 864.46875 583.3125 864.871094 583.742188 865.273438 584.179688 C 865.601562 584.539062 865.933594 584.894531 866.257812 585.253906 C 866.273438 585.269531 866.285156 585.285156 866.296875 585.296875 C 866.652344 585.691406 867.003906 586.082031 867.351562 586.476562 C 867.449219 586.585938 867.546875 586.695312 867.644531 586.804688 C 868.257812 587.5 868.863281 588.199219 869.464844 588.90625 C 870.308594 589.886719 871.128906 590.878906 871.941406 591.882812 C 872.335938 592.367188 872.730469 592.855469 873.121094 593.351562 C 873.472656 593.796875 873.828125 594.246094 874.175781 594.699219 C 874.621094 595.273438 875.066406 595.855469 875.507812 596.441406 C 875.851562 596.898438 876.191406 597.359375 876.53125 597.820312 C 876.535156 597.828125 876.542969 597.835938 876.546875 597.84375 C 876.867188 598.28125 877.1875 598.71875 877.503906 599.15625 C 877.738281 599.488281 877.976562 599.816406 878.210938 600.152344 C 878.425781 600.453125 878.632812 600.75 878.839844 601.050781 C 879.332031 601.75 879.816406 602.457031 880.292969 603.167969 C 880.746094 603.84375 881.199219 604.523438 881.640625 605.207031 C 881.832031 605.5 882.019531 605.789062 882.207031 606.082031 C 882.460938 606.472656 882.710938 606.867188 882.960938 607.265625 C 883.210938 607.664062 883.460938 608.066406 883.703125 608.460938 C 884.085938 609.082031 884.46875 609.714844 884.84375 610.34375 C 885.066406 610.714844 885.28125 611.085938 885.5 611.453125 C 885.742188 611.863281 885.984375 612.277344 886.21875 612.691406 C 886.390625 612.992188 886.5625 613.292969 886.734375 613.597656 C 886.863281 613.828125 886.996094 614.0625 887.125 614.292969 C 887.390625 614.769531 887.652344 615.246094 887.914062 615.726562 C 888.351562 616.527344 888.78125 617.332031 889.203125 618.140625 C 889.34375 618.40625 889.484375 618.679688 889.621094 618.953125 C 889.941406 619.566406 890.257812 620.1875 890.566406 620.8125 C 890.6875 621.054688 890.808594 621.300781 890.925781 621.546875 C 891.164062 622.027344 891.398438 622.515625 891.628906 622.996094 C 891.894531 623.550781 892.160156 624.105469 892.417969 624.664062 C 892.625 625.109375 892.832031 625.554688 893.03125 626.003906 C 893.191406 626.359375 893.351562 626.710938 893.511719 627.066406 C 894.03125 628.242188 894.539062 629.425781 895.03125 630.613281 C 895.1875 630.996094 895.347656 631.378906 895.5 631.757812 C 896.429688 634.050781 897.304688 636.371094 898.128906 638.714844 C 898.28125 639.160156 898.4375 639.609375 898.589844 640.0625 C 898.925781 641.027344 899.242188 642 899.550781 642.976562 C 899.707031 643.464844 899.859375 643.953125 900.011719 644.445312 C 900.199219 645.050781 900.382812 645.65625 900.5625 646.265625 C 900.632812 646.511719 900.703125 646.75 900.773438 646.992188 C 900.847656 647.246094 900.917969 647.496094 900.992188 647.75 C 901.117188 648.195312 901.242188 648.644531 901.363281 649.09375 C 901.4375 649.351562 901.503906 649.609375 901.574219 649.871094 C 901.65625 650.152344 901.730469 650.441406 901.804688 650.722656 C 901.863281 650.960938 901.925781 651.199219 901.988281 651.441406 C 902.210938 652.308594 902.429688 653.183594 902.636719 654.058594 C 902.996094 655.550781 903.332031 657.054688 903.644531 658.566406 C 903.710938 658.863281 903.769531 659.164062 903.828125 659.460938 C 903.921875 659.914062 904.007812 660.363281 904.09375 660.8125 C 904.179688 661.265625 904.269531 661.722656 904.351562 662.175781 C 904.574219 663.386719 904.78125 664.597656 904.976562 665.8125 L 816.945312 665.8125 L 816.945312 492.527344 C 801.136719 487.1875 784.472656 483.683594 767.222656 482.277344 L 767.222656 899.078125 C 784.472656 897.671875 801.136719 894.167969 816.945312 888.828125 L 816.945312 715.539062 L 904.976562 715.539062 C 899.09375 752.5 880.308594 785.160156 853.382812 808.753906 L 890.320312 845.695312 C 932.5625 807.4375 959.09375 752.15625 959.09375 690.675781 C 959.09375 629.070312 932.445312 573.679688 890.046875 535.410156 Z M 890.046875 535.410156 " fill-opacity="1" fill-rule="nonzero"/></g></svg>