<svg xmlns="http://www.w3.org/2000/svg" xmlns:xlink="http://www.w3.org/1999/xlink" width="2000" zoomAndPan="magnify" viewBox="640 600 220 220" height="2000" preserveAspectRatio="xMidYMid meet" version="1.0"><defs><clipPath id="0b96a42e3a"><path d="M 695 677 L 805 677 L 805 808.835938 L 695 808.835938 Z M 695 677 " clip-rule="nonzero"/></clipPath><clipPath id="6e9663f04b"><path d="M 651.082031 610.085938 L 849 610.085938 L 849 718 L 651.082031 718 Z M 651.082031 610.085938 " clip-rule="nonzero"/></clipPath></defs><g clip-path="url(#0b96a42e3a)"><path fill="#00bf63" d="M 780.140625 677.828125 L 804.332031 677.828125 L 804.332031 808.898438 L 780.140625 808.898438 L 780.140625 758.554688 L 750.011719 788.6875 L 719.882812 758.554688 L 719.882812 808.898438 L 695.691406 808.898438 L 695.691406 677.828125 L 719.882812 677.828125 L 719.882812 724.347656 L 750.011719 754.476562 L 780.140625 724.347656 Z M 780.140625 677.828125 " fill-opacity="1" fill-rule="nonzero"/></g><g clip-path="url(#6e9663f04b)"><path fill="#ff0000" d="M 848.9375 666.425781 C 848.9375 681.472656 843.078125 695.621094 832.433594 706.261719 L 821.128906 717.566406 L 821.128906 681.242188 C 827.40625 669.136719 825.472656 653.839844 815.332031 643.695312 C 809.261719 637.625 801.1875 634.28125 792.601562 634.28125 C 784.019531 634.28125 775.941406 637.625 769.871094 643.695312 L 750.011719 663.558594 L 730.148438 643.695312 C 724.078125 637.625 716.003906 634.28125 707.417969 634.28125 C 698.835938 634.28125 690.757812 637.625 684.691406 643.695312 C 678.621094 649.765625 675.277344 657.839844 675.277344 666.425781 C 675.277344 671.679688 676.53125 676.738281 678.894531 681.265625 L 678.894531 717.566406 L 670.34375 709.015625 L 667.585938 706.261719 C 656.9375 695.617188 651.082031 681.472656 651.082031 666.425781 C 651.082031 651.378906 656.9375 637.226562 667.582031 626.589844 C 678.222656 615.945312 692.371094 610.085938 707.417969 610.085938 C 722.46875 610.085938 736.617188 615.945312 747.253906 626.589844 L 750.011719 629.34375 L 752.765625 626.589844 C 763.40625 615.945312 777.554688 610.085938 792.601562 610.085938 C 807.648438 610.085938 821.800781 615.945312 832.4375 626.589844 C 843.078125 637.226562 848.9375 651.378906 848.9375 666.425781 Z M 848.9375 666.425781 " fill-opacity="1" fill-rule="nonzero"/></g></svg>