<svg xmlns="http://www.w3.org/2000/svg" xmlns:xlink="http://www.w3.org/1999/xlink" width="2000" zoomAndPan="magnify" viewBox="0 0 1500 1499.999933" height="2000" preserveAspectRatio="xMidYMid meet" version="1.0"><defs><clipPath id="5d3be6b53f"><path d="M 385 526 L 1129 526 L 1129 1422.808594 L 385 1422.808594 Z M 385 526 " clip-rule="nonzero"/></clipPath><clipPath id="b85b50223d"><path d="M 80.421875 63.058594 L 1433.421875 63.058594 L 1433.421875 799 L 80.421875 799 Z M 80.421875 63.058594 " clip-rule="nonzero"/></clipPath></defs><g clip-path="url(#5d3be6b53f)"><path fill="#00bf63" d="M 963.109375 526.363281 L 1128.570312 526.363281 L 1128.570312 1422.824219 L 963.109375 1422.824219 L 963.109375 1078.503906 L 757.046875 1284.570312 L 550.980469 1078.503906 L 550.980469 1422.824219 L 385.523438 1422.824219 L 385.523438 526.363281 L 550.980469 526.363281 L 550.980469 844.527344 L 757.046875 1050.59375 L 963.109375 844.527344 Z M 963.109375 526.363281 " fill-opacity="1" fill-rule="nonzero"/></g><g clip-path="url(#b85b50223d)"><path fill="#ff0000" d="M 1433.640625 448.382812 C 1433.640625 551.300781 1393.574219 648.070312 1320.777344 720.839844 L 1243.445312 798.167969 L 1243.445312 549.714844 C 1286.375 466.914062 1273.171875 362.292969 1203.804688 292.925781 C 1162.289062 251.414062 1107.0625 228.542969 1048.347656 228.542969 C 989.632812 228.542969 934.40625 251.414062 892.890625 292.925781 L 757.046875 428.773438 L 621.199219 292.925781 C 579.6875 251.414062 524.457031 228.542969 465.746094 228.542969 C 407.03125 228.542969 351.804688 251.414062 310.289062 292.925781 C 268.777344 334.4375 245.910156 389.667969 245.910156 448.382812 C 245.910156 484.3125 254.496094 518.910156 270.648438 549.882812 L 270.648438 798.167969 L 212.160156 739.683594 L 193.316406 720.839844 C 120.492188 648.042969 80.421875 551.300781 80.421875 448.382812 C 80.421875 345.460938 120.492188 248.691406 193.289062 175.921875 C 266.054688 103.125 362.824219 63.058594 465.746094 63.058594 C 568.664062 63.058594 665.433594 103.125 738.203125 175.921875 L 757.046875 194.765625 L 775.890625 175.921875 C 848.660156 103.125 945.429688 63.058594 1048.347656 63.058594 C 1151.265625 63.058594 1248.035156 103.125 1320.804688 175.921875 C 1393.574219 248.691406 1433.640625 345.460938 1433.640625 448.382812 Z M 1433.640625 448.382812 " fill-opacity="1" fill-rule="nonzero"/></g></svg>