<svg xmlns="http://www.w3.org/2000/svg" xmlns:xlink="http://www.w3.org/1999/xlink" width="2000" zoomAndPan="magnify" viewBox="0 0 1500 1499.999933" height="2000" preserveAspectRatio="xMidYMid meet" version="1.0"><defs><g/><clipPath id="929da9d2ef"><rect x="0" width="1075" y="0" height="201"/></clipPath></defs><g transform="matrix(1, 0, 0, 1, 213, 810)"><g clip-path="url(#929da9d2ef)"><g fill="#00bf63" fill-opacity="1"><g transform="translate(1.230349, 160.53876)"><g><path d="M 76.484375 -27.109375 L 114.640625 -114.296875 L 132.25 -114.296875 L 138.640625 0 L 121.03125 0 L 116.375 -98.234375 L 115.6875 -98.234375 L 72.171875 0 L 69.75 0 L 27.109375 -94.265625 L 26.421875 -94.265625 L 21.75 0 L 14.15625 0 L 20.546875 -114.296875 L 36.609375 -114.296875 Z M 76.484375 -27.109375 "/></g></g></g><g fill="#00bf63" fill-opacity="1"><g transform="translate(154.692082, 160.53876)"><g><path d="M 31.421875 -114.296875 L 31.421875 0 L 15.546875 0 L 15.546875 -114.296875 Z M 31.421875 -114.296875 "/></g></g></g><g fill="#00bf63" fill-opacity="1"><g transform="translate(201.64553, 160.53876)"><g><path d="M 15.546875 0 L 15.546875 -114.296875 L 32.453125 -114.296875 L 32.453125 -9.328125 C 39.472656 -7.253906 45.113281 -6.21875 49.375 -6.21875 L 80.625 -11.5625 L 78.5625 0 Z M 15.546875 0 "/></g></g></g><g fill="#00bf63" fill-opacity="1"><g transform="translate(285.712883, 160.53876)"><g><path d="M 1.734375 0 L 53 -117.0625 L 55.59375 -117.0625 L 106.875 0 L 88.0625 0 L 75.109375 -31.078125 L 23.828125 -31.078125 L 11.046875 0 Z M 26.421875 -37.640625 L 72.34375 -37.640625 L 49.546875 -93.578125 Z M 26.421875 -37.640625 "/></g></g></g><g fill="#00bf63" fill-opacity="1"><g transform="translate(394.29266, 160.53876)"><g><path d="M 102.390625 1.90625 L 99.453125 1.90625 L 23.828125 -92.71875 L 23.140625 -92.71875 L 23.140625 0 L 15.546875 0 L 15.546875 -114.296875 L 28.3125 -114.296875 L 94.09375 -31.25 L 94.78125 -31.25 L 94.78125 -114.296875 L 102.390625 -114.296875 Z M 102.390625 1.90625 "/></g></g></g><g fill="#00bf63" fill-opacity="1"><g transform="translate(512.194104, 160.53876)"><g><path d="M 67.515625 -116.375 C 82.472656 -116.375 94.84375 -111.453125 104.625 -101.609375 C 114.414062 -91.765625 119.3125 -78.097656 119.3125 -60.609375 C 119.3125 -49.328125 117.351562 -39.453125 113.4375 -30.984375 C 109.519531 -22.523438 104.394531 -15.992188 98.0625 -11.390625 C 85.75 -2.410156 72.164062 2.078125 57.3125 2.078125 C 42.46875 2.078125 30.179688 -2.898438 20.453125 -12.859375 C 10.734375 -22.816406 5.875 -36.546875 5.875 -54.046875 C 5.875 -63.140625 7.164062 -71.335938 9.75 -78.640625 C 12.34375 -85.953125 15.738281 -91.910156 19.9375 -96.515625 C 24.144531 -101.117188 29.007812 -104.972656 34.53125 -108.078125 C 44.65625 -113.609375 55.648438 -116.375 67.515625 -116.375 Z M 32.8125 -19.6875 C 35.800781 -14.625 39.828125 -10.679688 44.890625 -7.859375 C 49.953125 -5.035156 55.789062 -3.625 62.40625 -3.625 C 69.03125 -3.625 74.929688 -5.289062 80.109375 -8.625 C 85.285156 -11.96875 89.316406 -16.34375 92.203125 -21.75 C 98.066406 -32.570312 101 -44.195312 101 -56.625 C 101 -71.9375 97.953125 -84.253906 91.859375 -93.578125 C 85.066406 -104.054688 73.84375 -109.296875 58.1875 -109.296875 C 47.019531 -105.378906 38.554688 -98.644531 32.796875 -89.09375 C 27.046875 -79.539062 24.171875 -68.71875 24.171875 -56.625 C 24.171875 -41.894531 27.050781 -29.582031 32.8125 -19.6875 Z M 32.8125 -19.6875 "/></g></g></g><g fill="#00bf63" fill-opacity="1"><g transform="translate(637.345678, 160.53876)"><g/></g></g><g fill="#00bf63" fill-opacity="1"><g transform="translate(680.501389, 160.53876)"><g><path d="M 32.28125 -56.625 L 32.28125 0 L 15.546875 0 L 15.546875 -114.296875 L 32.28125 -114.296875 L 32.28125 -63.1875 L 84.609375 -63.1875 L 84.609375 -114.296875 L 101.34375 -114.296875 L 101.34375 0 L 84.609375 0 L 84.609375 -56.625 Z M 32.28125 -56.625 "/></g></g></g><g fill="#00bf63" fill-opacity="1"><g transform="translate(797.367088, 160.53876)"><g><path d="M 15.546875 0 L 15.546875 -114.296875 L 84.78125 -114.296875 L 83.046875 -102.734375 L 50.9375 -108.078125 C 45.289062 -108.078125 39.070312 -107.097656 32.28125 -105.140625 L 32.28125 -63.1875 L 70.609375 -63.1875 L 70.609375 -56.625 L 32.28125 -56.625 L 32.28125 -6.21875 L 85.8125 -11.5625 L 84.078125 0 Z M 15.546875 0 "/></g></g></g><g fill="#00bf63" fill-opacity="1"><g transform="translate(894.381126, 160.53876)"><g><path d="M 15.546875 0 L 15.546875 -114.296875 L 32.453125 -114.296875 L 32.453125 -9.328125 C 39.472656 -7.253906 45.113281 -6.21875 49.375 -6.21875 L 80.625 -11.5625 L 78.5625 0 Z M 15.546875 0 "/></g></g></g><g fill="#00bf63" fill-opacity="1"><g transform="translate(978.448526, 160.53876)"><g><path d="M 92.375 -84.609375 C 92.375 -73.554688 88.316406 -65.179688 80.203125 -59.484375 C 72.085938 -53.785156 61.066406 -50.9375 47.140625 -50.9375 L 32.28125 -50.9375 L 32.28125 0 L 15.546875 0 L 15.546875 -114.296875 L 52.65625 -114.296875 C 64.28125 -114.296875 73.804688 -111.648438 81.234375 -106.359375 C 88.660156 -101.066406 92.375 -93.816406 92.375 -84.609375 Z M 32.28125 -55.9375 L 47.65625 -55.9375 C 53.0625 -55.9375 57.691406 -56.972656 61.546875 -59.046875 C 65.410156 -61.117188 68.203125 -63.765625 69.921875 -66.984375 C 73.035156 -72.742188 74.59375 -78.328125 74.59375 -83.734375 C 74.59375 -86.378906 73.898438 -89.546875 72.515625 -93.234375 C 69.753906 -100.828125 64.054688 -105.773438 55.421875 -108.078125 C 47.128906 -108.078125 39.414062 -107.097656 32.28125 -105.140625 Z M 32.28125 -55.9375 "/></g></g></g></g></g></svg>